<svg width="32" height="32" viewBox="0 0 32 32" fill="none" xmlns="http://www.w3.org/2000/svg">
<g clip-path="url(#clip0_44_3)">
<path d="M16.6875 9.3125V16.3125L22.6875 19.875L21.6875 21.5625L14.6875 17.3125V9.3125H16.6875ZM8.4375 23.5625C10.5625 25.6458 13.0833 26.6875 16 26.6875C18.9167 26.6875 21.4167 25.6458 23.5 23.5625C25.625 21.4375 26.6875 18.9167 26.6875 16C26.6875 13.0833 25.625 10.5833 23.5 8.5C21.4167 6.375 18.9167 5.3125 16 5.3125C13.0833 5.3125 10.5625 6.375 8.4375 8.5C6.35417 10.5833 5.3125 13.0833 5.3125 16C5.3125 18.9167 6.35417 21.4375 8.4375 23.5625ZM6.5625 6.625C9.1875 4 12.3333 2.6875 16 2.6875C19.6667 2.6875 22.7917 4 25.375 6.625C28 9.20833 29.3125 12.3333 29.3125 16C29.3125 19.6667 28 22.8125 25.375 25.4375C22.7917 28.0208 19.6667 29.3125 16 29.3125C12.3333 29.3125 9.1875 28.0208 6.5625 25.4375C3.97917 22.8125 2.6875 19.6667 2.6875 16C2.6875 12.3333 3.97917 9.20833 6.5625 6.625Z" fill="#1F7A8C"/>
</g>
<defs>
<clipPath id="clip0_44_3">
<rect width="32" height="32" fill="white"/>
</clipPath>
</defs>
</svg>
