<svg width="32" height="32" viewBox="0 0 32 32" fill="none" xmlns="http://www.w3.org/2000/svg">
<g clip-path="url(#clip0_10_15)">
<path d="M8.9375 20.1875C11.3958 19.1875 13.75 18.6875 16 18.6875C18.25 18.6875 20.5833 19.1875 23 20.1875C25.4583 21.1458 26.6875 22.4167 26.6875 24V26.6875H5.3125V24C5.3125 22.4167 6.52083 21.1458 8.9375 20.1875ZM19.75 14.4375C18.7083 15.4792 17.4583 16 16 16C14.5417 16 13.2917 15.4792 12.25 14.4375C11.2083 13.3958 10.6875 12.1458 10.6875 10.6875C10.6875 9.22917 11.2083 7.97917 12.25 6.9375C13.2917 5.85417 14.5417 5.3125 16 5.3125C17.4583 5.3125 18.7083 5.85417 19.75 6.9375C20.7917 7.97917 21.3125 9.22917 21.3125 10.6875C21.3125 12.1458 20.7917 13.3958 19.75 14.4375Z" fill="white"/>
<rect x="0.75" y="0.75" width="30.5" height="30.5" rx="1.25" stroke="white" stroke-width="1.5"/>
</g>
<defs>
<clipPath id="clip0_10_15">
<rect width="32" height="32" fill="white"/>
</clipPath>
</defs>
</svg>
