<svg width="32" height="32" viewBox="0 0 32 32" fill="none" xmlns="http://www.w3.org/2000/svg">
<g clip-path="url(#clip0_73_68)">
<path d="M11.5 24.375C13.0833 25.2083 14.5833 25.625 16 25.625C17.4167 25.625 18.8958 25.2083 20.4375 24.375C22.0208 23.5417 23.2083 22.5208 24 21.3125C23.9583 20.1458 23.0208 19.1667 21.1875 18.375C19.3542 17.5833 17.625 17.1875 16 17.1875C14.375 17.1875 12.6458 17.5833 10.8125 18.375C8.97917 19.125 8.04167 20.1042 8 21.3125C8.79167 22.5208 9.95833 23.5417 11.5 24.375ZM18.8125 7.875C18.0208 7.08333 17.0833 6.6875 16 6.6875C14.9167 6.6875 13.9792 7.08333 13.1875 7.875C12.3958 8.66667 12 9.60417 12 10.6875C12 11.7708 12.3958 12.7083 13.1875 13.5C13.9792 14.2917 14.9167 14.6875 16 14.6875C17.0833 14.6875 18.0208 14.2917 18.8125 13.5C19.6042 12.7083 20 11.7708 20 10.6875C20 9.60417 19.6042 8.66667 18.8125 7.875ZM6.5625 6.625C9.1875 4 12.3333 2.6875 16 2.6875C19.6667 2.6875 22.7917 4 25.375 6.625C28 9.20833 29.3125 12.3333 29.3125 16C29.3125 19.6667 28 22.8125 25.375 25.4375C22.7917 28.0208 19.6667 29.3125 16 29.3125C12.3333 29.3125 9.1875 28.0208 6.5625 25.4375C3.97917 22.8125 2.6875 19.6667 2.6875 16C2.6875 12.3333 3.97917 9.20833 6.5625 6.625Z" fill="black"/>
</g>
<defs>
<clipPath id="clip0_73_68">
<rect width="32" height="32" fill="white"/>
</clipPath>
</defs>
</svg>
