<svg width="32" height="32" viewBox="0 0 32 32" fill="none" xmlns="http://www.w3.org/2000/svg">
<g clip-path="url(#clip0_44_2)">
<path d="M25.3125 5.3125C26.0625 5.3125 26.6875 5.58333 27.1875 6.125C27.7292 6.625 28 7.25 28 8V26.6875C28 27.3958 27.7292 28.0208 27.1875 28.5625C26.6875 29.0625 26.0625 29.3125 25.3125 29.3125H6.6875C5.9375 29.3125 5.29167 29.0625 4.75 28.5625C4.25 28.0208 4 27.3958 4 26.6875V8C4 7.25 4.25 6.625 4.75 6.125C5.29167 5.58333 5.9375 5.3125 6.6875 5.3125H8V2.6875H10.6875V5.3125H21.3125V2.6875H24V5.3125H25.3125ZM25.3125 26.6875V13.3125H6.6875V26.6875H25.3125ZM12 18.6875V16H9.3125V18.6875H12ZM17.3125 18.6875V16H14.6875V18.6875H17.3125ZM22.6875 18.6875V16H20V18.6875H22.6875ZM12 24V21.3125H9.3125V24H12ZM17.3125 24V21.3125H14.6875V24H17.3125ZM22.6875 24V21.3125H20V24H22.6875Z" fill="#1F7A8C"/>
</g>
<defs>
<clipPath id="clip0_44_2">
<rect width="32" height="32" fill="white"/>
</clipPath>
</defs>
</svg>
