<svg width="32" height="32" viewBox="0 0 32 32" fill="none" xmlns="http://www.w3.org/2000/svg">
<g clip-path="url(#clip0_64_167)">
<path d="M25.3125 25.3125V10.6875H6.6875V25.3125H25.3125ZM25.3125 4C26.0208 4 26.6458 4.27083 27.1875 4.8125C27.7292 5.35417 28 5.97917 28 6.6875V25.3125C28 26.0208 27.7292 26.6458 27.1875 27.1875C26.6458 27.7292 26.0208 28 25.3125 28H6.6875C5.9375 28 5.29167 27.75 4.75 27.25C4.25 26.7083 4 26.0625 4 25.3125V6.6875C4 5.97917 4.25 5.35417 4.75 4.8125C5.29167 4.27083 5.9375 4 6.6875 4H8V1.3125H10.6875V4H21.3125V1.3125H24V4H25.3125ZM22.0625 14.75L14.125 22.6875L9.875 18.4375L11.3125 17L14.125 19.8125L20.625 13.3125L22.0625 14.75Z" fill="black"/>
</g>
<defs>
<clipPath id="clip0_64_167">
<rect width="32" height="32" fill="white"/>
</clipPath>
</defs>
</svg>
