<svg width="32" height="34" viewBox="0 0 32 34" fill="none" xmlns="http://www.w3.org/2000/svg">
<path d="M13.625 15.375C14.2917 16 15.0833 16.3125 16 16.3125C16.9167 16.3125 17.6875 16 18.3125 15.375C18.9792 14.7083 19.3125 13.9167 19.3125 13C19.3125 12.0833 18.9792 11.3125 18.3125 10.6875C17.6875 10.0208 16.9167 9.6875 16 9.6875C15.0833 9.6875 14.2917 10.0208 13.625 10.6875C13 11.3125 12.6875 12.0833 12.6875 13C12.6875 13.9167 13 14.7083 13.625 15.375ZM9.375 6.4375C11.2083 4.60417 13.4167 3.6875 16 3.6875C18.5833 3.6875 20.7708 4.60417 22.5625 6.4375C24.3958 8.22917 25.3125 10.4167 25.3125 13C25.3125 14.2917 24.9792 15.7708 24.3125 17.4375C23.6875 19.1042 22.9167 20.6667 22 22.125C21.0833 23.5833 20.1667 24.9583 19.25 26.25C18.375 27.5 17.625 28.5 17 29.25L16 30.3125C15.75 30.0208 15.4167 29.6458 15 29.1875C14.5833 28.6875 13.8333 27.7292 12.75 26.3125C11.6667 24.8542 10.7083 23.4583 9.875 22.125C9.08333 20.75 8.35417 19.2083 7.6875 17.5C7.02083 15.7917 6.6875 14.2917 6.6875 13C6.6875 10.4167 7.58333 8.22917 9.375 6.4375Z" fill="black"/>
</svg>
