<svg width="32" height="32" viewBox="0 0 32 32" fill="none" xmlns="http://www.w3.org/2000/svg">
<g clip-path="url(#clip0_36_10)">
<path d="M17.3125 11.3125V8.6875H14.6875V11.3125H17.3125ZM17.3125 17.3125V14.6875H14.6875V17.3125H17.3125ZM17.3125 23.3125V20.6875H14.6875V23.3125H17.3125ZM29.3125 13.3125C28.6042 13.3125 27.9792 13.5833 27.4375 14.125C26.9375 14.6667 26.6875 15.2917 26.6875 16C26.6875 16.7083 26.9375 17.3333 27.4375 17.875C27.9792 18.4167 28.6042 18.6875 29.3125 18.6875V24C29.3125 24.7083 29.0417 25.3333 28.5 25.875C28 26.4167 27.3958 26.6875 26.6875 26.6875H5.3125C4.60417 26.6875 3.97917 26.4167 3.4375 25.875C2.9375 25.3333 2.6875 24.7083 2.6875 24V18.6875C3.4375 18.6875 4.0625 18.4375 4.5625 17.9375C5.0625 17.3958 5.3125 16.75 5.3125 16C5.3125 15.2917 5.04167 14.6667 4.5 14.125C4 13.5833 3.39583 13.3125 2.6875 13.3125V8C2.6875 7.25 2.9375 6.625 3.4375 6.125C3.97917 5.58333 4.60417 5.3125 5.3125 5.3125H26.6875C27.4375 5.3125 28.0625 5.58333 28.5625 6.125C29.0625 6.625 29.3125 7.25 29.3125 8V13.3125Z" fill="white"/>
</g>
<defs>
<clipPath id="clip0_36_10">
<rect width="32" height="32" fill="white"/>
</clipPath>
</defs>
</svg>
